<svg width="210" height="107" viewBox="0 0 210 107" fill="none" xmlns="http://www.w3.org/2000/svg">
<path d="M202.08 0L7.92075 0C7.92075 5.96177 4.37401 10.796 0 10.796V20.0613C1.45742 20.0613 2.64025 21.6735 2.64025 23.66C2.64025 25.6464 1.45742 27.2586 0 27.2586V31.9081C1.45742 31.9081 2.64025 33.5203 2.64025 35.5067C2.64025 37.4932 1.45742 39.1054 0 39.1054V43.9036C1.45742 43.9036 2.64025 45.5158 2.64025 47.5022C2.64025 49.4887 1.45742 51.1009 0 51.1009V55.8991C1.45742 55.8991 2.64025 57.5113 2.64025 59.4978C2.64025 61.4842 1.45742 63.0964 0 63.0964V67.7459C1.45742 67.7459 2.64025 69.3581 2.64025 71.3445C2.64025 73.331 1.45742 74.9432 0 74.9432V79.7414C1.45742 79.7414 2.64025 81.3536 2.64025 83.34C2.64025 85.3265 1.45742 86.9387 0 86.9387V96.204C4.37401 96.204 7.92075 101.038 7.92075 107H202.08C202.08 101.038 205.626 96.204 210 96.204V86.9387C208.543 86.9387 207.36 85.3265 207.36 83.34C207.36 81.3536 208.543 79.7414 210 79.7414V74.9432C208.543 74.9432 207.36 73.331 207.36 71.3445C207.36 69.3581 208.543 67.7459 210 67.7459V63.0964C208.543 63.0964 207.36 61.4842 207.36 59.4978C207.36 57.5113 208.543 55.8991 210 55.8991V51.1009C208.543 51.1009 207.36 49.4887 207.36 47.5022C207.36 45.5158 208.543 43.9036 210 43.9036V39.1054C208.543 39.1054 207.36 37.4932 207.36 35.5067C207.36 33.5203 208.543 31.9081 210 31.9081V27.2586C208.543 27.2586 207.36 25.6464 207.36 23.66C207.36 21.6735 208.543 20.0613 210 20.0613V10.796C205.626 10.796 202.08 5.96177 202.08 0Z" fill="#D9D9D9"/>
</svg>
