<svg width="128" height="128" viewBox="0 0 128 128" fill="none" xmlns="http://www.w3.org/2000/svg">
<path d="M61.5811 3.12891C63.078 2.26478 64.922 2.26478 66.4189 3.12891L115.506 31.4688C117.003 32.3331 117.926 33.9314 117.926 35.6602V92.3398C117.926 94.0686 117.003 95.6669 115.506 96.5312L66.4189 124.871C64.922 125.735 63.078 125.735 61.5811 124.871L12.4941 96.5312C10.997 95.6669 10.0742 94.0686 10.0742 92.3398V35.6602C10.0742 33.9314 10.997 32.3331 12.4941 31.4688L61.5811 3.12891Z" fill="url(#paint0_linear_7_6)" stroke="url(#paint1_linear_7_6)" stroke-width="3"/>
<path d="M90.4005 57.6007L89.1448 63.3121C88.4123 66.6462 86.8428 67.9918 84.5257 67.9918C82.9113 67.9918 82.6123 67.4535 82.6123 66.9602C82.6123 66.6163 82.8066 66.1678 83.3448 66.1678C84.0324 66.1678 84.3164 67.02 84.5257 67.4984H84.7051C85.8561 67.4984 87.1567 66.5266 87.7098 63.6859H87.6649C86.783 64.4334 86.0355 64.8969 85.0041 64.8969C84.0623 64.8969 83.4943 64.2989 83.4943 63.4317C83.4943 63.2074 83.5242 62.8486 83.6587 62.2954L84.2267 60.0228C84.3314 59.6341 84.3912 59.2304 84.3912 58.9763C84.3912 58.438 84.2566 58.2885 83.7185 58.2885C83.5092 58.2885 83.0907 58.3932 82.9113 58.453L83.0309 57.9745C83.7633 57.6456 84.3613 57.4662 84.7201 57.4662C85.5273 57.4662 85.8711 57.825 85.8711 58.5128C85.8711 58.7071 85.8412 58.9912 85.7515 59.3201L85.0938 61.9814C84.9891 62.3851 84.9144 62.7738 84.9144 62.9682C84.9144 63.6261 85.2433 64.0297 85.8561 64.0297C86.3195 64.0297 87.0371 63.8653 87.8443 63.043L89.0551 57.5858L90.3108 57.4961L90.4005 57.6007Z" fill="#272727" stroke="#272727" stroke-width="0.402048"/>
<path d="M82.8931 53.5415L80.8751 62.3029C80.8003 62.6169 80.6957 63.0804 80.6957 63.3196C80.6957 63.8728 80.9199 64.0372 81.4581 64.0372C81.6674 64.0372 82.0411 63.9774 82.2503 63.9027L82.1457 64.3662C81.3833 64.725 80.8153 64.8596 80.3818 64.8596C79.6941 64.8596 79.2307 64.4858 79.2307 63.7382H79.1859C78.7374 64.1419 77.8704 64.9493 76.8689 64.9493C75.4487 64.9493 74.5967 63.8578 74.5967 62.1086C74.5967 59.6416 76.4503 57.369 78.7374 57.369C79.6941 57.369 80.3818 57.7279 80.5612 57.8325L81.1292 55.3506C81.189 55.0965 81.2039 54.947 81.2039 54.7974C81.2039 54.0947 80.621 54.1396 79.7689 54.0499L79.8735 53.6014L82.8184 53.4369L82.8931 53.5415ZM80.2622 59.0884C80.2323 58.61 79.8287 57.8923 78.8421 57.8923C77.3323 57.8923 76.1065 59.9107 76.1065 62.1235C76.1065 63.2299 76.3158 64.127 77.422 64.127C78.1694 64.127 78.8869 63.5289 79.3503 63.0505L80.2622 59.0884Z" fill="#272727" stroke="#272727" stroke-width="0.402048"/>
<path d="M74.0053 58.8916C74.0053 60.2222 72.944 60.7904 72.1069 61.1044C71.1651 61.4482 70.2682 61.6277 69.2068 61.7622C69.2068 63.3022 69.7749 64.1245 70.8811 64.1245C71.8826 64.1245 72.5553 63.6162 73.2729 62.6742L73.6914 62.9882C72.929 64.1544 71.6734 64.9468 70.4027 64.9468C68.5641 64.9468 67.7568 63.7956 67.7568 62.1659C67.7568 59.7887 69.3862 57.3666 71.9424 57.3666C73.3476 57.3666 74.0053 57.9945 74.0053 58.8916ZM72.66 58.7122C72.66 57.9497 72.1966 57.8899 71.8079 57.8899C70.6419 57.8899 69.5058 59.3102 69.2517 61.2539C70.0739 61.1343 70.7914 61.0296 71.4641 60.6857C72.2564 60.2821 72.66 59.5943 72.66 58.7122Z" fill="#272727" stroke="#272727" stroke-width="0.402048"/>
<path d="M67.0201 63.9152L66.9154 64.3787C66.1531 64.6926 65.585 64.8571 65.1515 64.8571C64.3592 64.8571 63.9855 64.4086 63.9855 63.8105C63.9855 63.6162 64.0154 63.3321 64.1051 63.0032L64.8226 60.2821C64.9273 59.8634 65.002 59.4896 65.002 59.2953C65.002 58.6374 64.7329 58.2337 64.1201 58.2337C63.6268 58.2337 62.9541 58.4281 62.087 59.3252L60.8314 64.7375H59.471L60.6071 59.8634C60.6669 59.6092 60.7118 59.37 60.7118 59.2504C60.7118 58.6225 60.3979 58.2337 59.785 58.2337C59.2767 58.2337 58.5592 58.4431 57.6922 59.385L56.4664 64.7375H55.1061L56.1824 60.0129C56.2721 59.6691 56.3617 59.2205 56.3617 58.9663C56.3617 58.4281 56.2272 58.2636 55.6741 58.2636C55.4798 58.2636 55.0463 58.3683 54.8818 58.4281L54.9865 57.9497C55.719 57.6207 56.3169 57.4563 56.7504 57.4563C57.5277 57.4563 57.7968 57.8899 57.8267 58.6374H57.8716C58.9777 57.7852 59.5159 57.3666 60.6071 57.3666C61.4891 57.3666 62.0572 57.9198 62.1169 58.6972H62.1468C63.2231 57.8151 63.8659 57.3666 64.9572 57.3666C65.8989 57.3666 66.4221 57.9646 66.4221 58.8318C66.4221 59.0561 66.3922 59.4448 66.2428 59.9681L65.6299 62.3154C65.5252 62.6892 65.4505 63.063 65.4505 63.3171C65.4505 63.8703 65.6747 64.0348 66.2129 64.0348C66.4221 64.0348 66.8108 63.9899 67.0201 63.9152Z" fill="#272727" stroke="#272727" stroke-width="0.402048"/>
<path d="M54.228 58.8935C54.228 60.2242 53.1666 60.7923 52.3295 61.1063C51.3878 61.4502 50.4909 61.6296 49.4295 61.7642C49.4295 63.3041 49.9975 64.1264 51.1037 64.1264C52.1053 64.1264 52.778 63.6181 53.4955 62.6762L53.9141 62.9902C53.1517 64.1564 51.896 64.9488 50.6254 64.9488C48.7867 64.9488 47.9795 63.7975 47.9795 62.1678C47.9795 59.7906 49.6089 57.3685 52.1651 57.3685C53.5703 57.3685 54.228 57.9965 54.228 58.8935ZM52.8826 58.7141C52.8826 57.9516 52.4192 57.8918 52.0306 57.8918C50.8646 57.8918 49.7285 59.3122 49.4744 61.2558C50.2965 61.1362 51.0141 61.0316 51.6867 60.6877C52.479 60.284 52.8826 59.5963 52.8826 58.7141Z" fill="#272727" stroke="#272727" stroke-width="0.402048"/>
<path d="M47.1979 64.259L47.0783 64.7375H44.4623C43.655 62.7938 42.9375 61.5379 42.1303 60.0279H41.039L40.2767 63.362C40.2617 63.4367 40.2318 63.5563 40.2318 63.6161C40.2318 63.8404 40.3066 64.0198 40.5158 64.1095C40.6653 64.1843 41.2633 64.2441 41.5024 64.259L41.3829 64.7375H37.0029L37.1225 64.259C37.3617 64.2441 37.9297 64.1843 38.1241 64.1095C38.4828 63.975 38.6473 63.6909 38.722 63.362L40.456 55.7967C40.4859 55.707 40.5009 55.6023 40.5009 55.4977C40.5009 55.3033 40.4262 55.1389 40.2169 55.0491C39.9926 54.9594 39.5292 54.8697 39.2901 54.8548L39.3947 54.3763H44.0587C45.6283 54.3763 46.8989 54.9594 46.8989 56.3499C46.8989 58.2337 45.4638 59.2803 43.6251 59.6989C44.4174 61.2389 44.6566 61.6127 45.3891 63.0331C45.703 63.6161 45.9272 63.8554 46.2561 64.0497C46.4953 64.1843 46.9437 64.2441 47.1979 64.259ZM45.1051 56.5144C45.1051 55.4229 44.3576 54.9295 43.371 54.9295H42.205L41.1885 59.4298H42.22C43.7896 59.4298 45.1051 58.2038 45.1051 56.5144Z" fill="#272727" stroke="#272727" stroke-width="0.402048"/>
<path d="M53.1658 72.3782H51.5273C51.4642 72.028 51.3469 71.7199 51.1754 71.4539C51.0038 71.1878 50.7938 70.9619 50.5452 70.7764C50.2966 70.5908 50.0182 70.4508 49.7101 70.3562C49.4055 70.2617 49.0817 70.2144 48.7386 70.2144C48.1189 70.2144 47.5639 70.3702 47.0738 70.6818C46.5871 70.9934 46.202 71.4504 45.9184 72.0526C45.6383 72.6548 45.4982 73.39 45.4982 74.2583C45.4982 75.1336 45.6383 75.8723 45.9184 76.4745C46.202 77.0767 46.5888 77.5319 47.079 77.84C47.5692 78.1481 48.1206 78.3022 48.7333 78.3022C49.0729 78.3022 49.395 78.2566 49.6996 78.1656C50.0077 78.0711 50.2861 77.9328 50.5347 77.7507C50.7833 77.5687 50.9933 77.3463 51.1649 77.0837C51.3399 76.8177 51.4607 76.5131 51.5273 76.1699L53.1658 76.1752C53.0783 76.7039 52.9085 77.1905 52.6564 77.6352C52.4078 78.0763 52.0874 78.458 51.6953 78.7801C51.3067 79.0987 50.862 79.3455 50.3614 79.5206C49.8607 79.6956 49.3145 79.7832 48.7228 79.7832C47.7915 79.7832 46.9617 79.5626 46.2335 79.1214C45.5052 78.6768 44.931 78.0413 44.5109 77.215C44.0943 76.3888 43.8859 75.4032 43.8859 74.2583C43.8859 73.1099 44.096 72.1243 44.5161 71.3015C44.9363 70.4753 45.5105 69.8416 46.2387 69.4004C46.967 68.9558 47.795 68.7334 48.7228 68.7334C49.2935 68.7334 49.8257 68.8157 50.3193 68.9803C50.8165 69.1413 51.2629 69.3794 51.6586 69.6945C52.0542 70.0061 52.3815 70.3877 52.6406 70.8394C52.8997 71.2875 53.0748 71.8005 53.1658 72.3782ZM56.7376 79.8147C56.2264 79.8147 55.7643 79.7201 55.3511 79.5311C54.938 79.3385 54.6106 79.0602 54.369 78.696C54.131 78.3319 54.0119 77.8855 54.0119 77.3568C54.0119 76.9017 54.0995 76.5271 54.2745 76.233C54.4496 75.9389 54.6859 75.706 54.9835 75.5345C55.2811 75.3629 55.6137 75.2334 55.9813 75.1458C56.349 75.0583 56.7236 74.9918 57.1052 74.9463C57.5884 74.8903 57.9805 74.8447 58.2816 74.8097C58.5827 74.7712 58.8015 74.7099 58.9381 74.6259C59.0746 74.5419 59.1429 74.4053 59.1429 74.2163V74.1795C59.1429 73.7209 59.0134 73.3655 58.7543 73.1134C58.4987 72.8613 58.1171 72.7353 57.6094 72.7353C57.0807 72.7353 56.6641 72.8526 56.3595 73.0872C56.0584 73.3182 55.85 73.5756 55.7345 73.8592L54.2588 73.523C54.4338 73.0329 54.6894 72.6372 55.0255 72.3361C55.3651 72.0315 55.7555 71.811 56.1967 71.6744C56.6378 71.5344 57.1017 71.4644 57.5884 71.4644C57.9105 71.4644 58.2519 71.5029 58.6125 71.5799C58.9766 71.6534 59.3162 71.79 59.6313 71.9895C59.9499 72.1891 60.2108 72.4744 60.4138 72.8456C60.6169 73.2132 60.7184 73.6911 60.7184 74.2793V79.6361H59.1849V78.5332H59.1219C59.0204 78.7363 58.8681 78.9359 58.665 79.1319C58.4619 79.328 58.2011 79.4908 57.8825 79.6204C57.5639 79.7499 57.1822 79.8147 56.7376 79.8147ZM57.079 78.5542C57.5131 78.5542 57.8842 78.4685 58.1923 78.2969C58.5039 78.1253 58.7403 77.9013 58.9013 77.6247C59.0659 77.3446 59.1482 77.0452 59.1482 76.7266V75.6868C59.0921 75.7428 58.9836 75.7953 58.8225 75.8443C58.665 75.8898 58.4847 75.9301 58.2816 75.9651C58.0785 75.9966 57.8807 76.0264 57.6882 76.0544C57.4956 76.0789 57.3345 76.0999 57.205 76.1174C56.9004 76.1559 56.6221 76.2207 56.37 76.3117C56.1214 76.4028 55.9218 76.5341 55.7713 76.7056C55.6242 76.8737 55.5507 77.0978 55.5507 77.3778C55.5507 77.7665 55.6942 78.0606 55.9813 78.2601C56.2684 78.4562 56.6343 78.5542 57.079 78.5542ZM62.2184 79.6361V71.5694H63.7362V72.8508H63.8202C63.9672 72.4167 64.2263 72.0753 64.5974 71.8267C64.9721 71.5746 65.3957 71.4486 65.8684 71.4486C65.9664 71.4486 66.0819 71.4521 66.215 71.4591C66.3515 71.4661 66.4583 71.4749 66.5353 71.4854V72.9874C66.4723 72.9699 66.3603 72.9506 66.1992 72.9296C66.0382 72.9051 65.8771 72.8928 65.7161 72.8928C65.3449 72.8928 65.0141 72.9716 64.7235 73.1292C64.4364 73.2832 64.2088 73.4985 64.0408 73.7751C63.8727 74.0482 63.7887 74.3598 63.7887 74.7099V79.6361H62.2184ZM70.4905 79.7989C69.6957 79.7989 69.0113 79.6291 68.4371 79.2895C67.8664 78.9464 67.4252 78.465 67.1136 77.8453C66.8055 77.222 66.6515 76.492 66.6515 75.6553C66.6515 74.829 66.8055 74.1007 67.1136 73.4705C67.4252 72.8403 67.8594 72.3484 68.4161 71.9948C68.9762 71.6412 69.631 71.4644 70.3802 71.4644C70.8354 71.4644 71.2765 71.5396 71.7037 71.6902C72.1308 71.8407 72.5142 72.0771 72.8538 72.3992C73.1934 72.7213 73.4613 73.1397 73.6573 73.6543C73.8534 74.1655 73.9514 74.787 73.9514 75.5187V76.0754H67.539V74.899H72.4127C72.4127 74.4859 72.3286 74.12 72.1606 73.8014C71.9925 73.4793 71.7562 73.2254 71.4516 73.0399C71.1505 72.8543 70.7969 72.7615 70.3907 72.7615C69.9496 72.7615 69.5644 72.8701 69.2353 73.0872C68.9097 73.3007 68.6576 73.5808 68.4791 73.9274C68.304 74.2706 68.2165 74.6434 68.2165 75.0461V75.9651C68.2165 76.5043 68.311 76.963 68.5001 77.3411C68.6927 77.7192 68.9605 78.0081 69.3036 78.2076C69.6467 78.4037 70.0476 78.5017 70.5063 78.5017C70.8039 78.5017 71.0752 78.4597 71.3203 78.3757C71.5654 78.2882 71.7772 78.1586 71.9558 77.9871C72.1343 77.8155 72.2709 77.6037 72.3654 77.3516L73.8516 77.6194C73.7326 78.0571 73.519 78.4405 73.2109 78.7696C72.9063 79.0952 72.5229 79.349 72.0608 79.5311C71.6021 79.7096 71.0787 79.7989 70.4905 79.7989Z" fill="url(#paint2_linear_7_6)"/>
<path d="M75.6943 72.0129H78.2573M80.8202 72.0129H78.2573M78.2573 69.4506V72.0129M78.2573 74.5753V72.0129" stroke="#047F59" stroke-width="0.887825" stroke-linecap="round"/>
<path d="M35.9946 40.5074L35.003 41.7987L30.2111 39.7113L30.1984 39.7278L33.4649 43.8018L32.4543 45.118L25.3429 42.1442L26.3408 40.8446L31.0818 42.9983L31.0946 42.9818L27.8599 38.8663L28.7942 37.6496L33.6421 39.7669L33.6548 39.7503L30.326 35.6547L31.3048 34.38L35.9946 40.5074ZM33.6129 31.9996L37.955 28.5062L38.8186 29.5795L35.7531 32.0458L36.754 33.2899L39.5674 31.0264L40.3655 32.0184L37.5521 34.282L38.6969 35.7049L41.8275 33.1863L42.691 34.2596L38.2839 37.8053L33.6129 31.9996ZM40.507 26.6986L41.9228 25.8738L45.6736 32.3124L44.2579 33.1372L40.507 26.6986ZM52.4234 28.5763C52.2834 29.0312 52.0746 29.3931 51.7971 29.662C51.5171 29.9244 51.208 30.1198 50.8697 30.248C50.3362 30.4503 49.8203 30.5418 49.3219 30.5224C48.8275 30.4941 48.3722 30.3728 47.9561 30.1585C47.5401 29.9443 47.1713 29.6488 46.8499 29.2721C46.526 28.889 46.2679 28.4437 46.0755 27.9362C45.8781 27.4158 45.7737 26.9048 45.7621 26.4032C45.748 25.8951 45.8244 25.4197 45.9914 24.9769C46.1583 24.5341 46.4174 24.1382 46.7688 23.7892C47.1266 23.4378 47.5722 23.1609 48.1057 22.9586C48.4635 22.8229 48.8292 22.7475 49.203 22.7323C49.5807 22.7081 49.9424 22.7495 50.2881 22.8566C50.6403 22.9611 50.9621 23.133 51.2537 23.3722C51.5453 23.6113 51.7859 23.9219 51.9754 24.304L50.5116 24.859C50.2725 24.5032 49.9859 24.277 49.6517 24.1805C49.3174 24.084 48.9649 24.1061 48.5941 24.2467C48.2493 24.3774 47.9825 24.5568 47.7936 24.7846C47.6022 25.006 47.4749 25.2589 47.4116 25.5434C47.3458 25.8213 47.3314 26.1169 47.3684 26.4303C47.4119 26.7412 47.4916 27.0496 47.6075 27.3553C47.7185 27.6481 47.8596 27.922 48.0307 28.177C48.2059 28.4231 48.4102 28.6284 48.6437 28.7929C48.8772 28.9573 49.1402 29.0622 49.4327 29.1076C49.7228 29.1464 50.0402 29.1005 50.385 28.9697C50.8924 28.7773 51.2346 28.5024 51.4117 28.1451C51.5927 27.7788 51.6135 27.3431 51.4741 26.8379L49.9322 27.4225L49.4993 26.2808L52.4268 25.1708L53.8551 28.9375L52.8792 29.3075L52.4234 28.5763ZM54.9034 20.9538L56.5273 20.7359L56.9076 23.57L59.8969 23.1688L59.5166 20.3347L61.1405 20.1168L62.1315 27.5021L60.5076 27.72L60.0801 24.5342L57.0908 24.9353L57.5183 28.1211L55.8944 28.339L54.9034 20.9538ZM66.4415 21.4028L64.2136 21.2477L64.3092 19.8734L70.3997 20.2975L70.304 21.6717L68.076 21.5166L67.6542 27.5758L66.0196 27.462L66.4415 21.4028ZM77.7516 21.8453L79.2887 22.4128L77.1852 28.1108L80.5922 29.3686L80.1152 30.6609L75.171 28.8357L77.7516 21.8453ZM84.7684 28.9815C84.6009 29.246 84.4665 29.5233 84.3653 29.8132C84.2737 30.1011 84.2322 30.3877 84.2408 30.6732C84.2495 30.9587 84.3235 31.232 84.4629 31.4931C84.606 31.7484 84.8333 31.9746 85.1448 32.1719C85.4564 32.3691 85.7581 32.4778 86.0501 32.4979C86.3457 32.5122 86.6244 32.4622 86.8862 32.3479C87.1479 32.2336 87.3863 32.0716 87.6014 31.862C87.8261 31.6501 88.0222 31.4119 88.1896 31.1474C88.3646 30.8711 88.5016 30.5832 88.6006 30.2836C88.7056 29.9877 88.7538 29.697 88.7451 29.4116C88.7401 29.1202 88.6661 28.8469 88.523 28.5917C88.3837 28.3305 88.1582 28.1013 87.8467 27.9041C87.5351 27.7068 87.2315 27.6011 86.9358 27.5868C86.6439 27.5667 86.3652 27.6167 86.0998 27.7369C85.838 27.8512 85.5929 28.0172 85.3645 28.2349C85.142 28.4563 84.9433 28.7052 84.7684 28.9815ZM83.384 28.105C83.6817 27.6348 84.0276 27.2444 84.4218 26.934C84.8197 26.6177 85.2458 26.3934 85.7001 26.261C86.1544 26.1287 86.6266 26.0982 87.1166 26.1697C87.6125 26.2448 88.1015 26.435 88.5835 26.7401C89.0715 27.049 89.4525 27.4097 89.7267 27.822C90.0009 28.2344 90.1753 28.6742 90.25 29.1415C90.3248 29.6088 90.3043 30.0899 90.1886 30.5848C90.0766 31.0739 89.8718 31.5535 89.574 32.0238C89.2838 32.4823 88.9415 32.8668 88.5474 33.1772C88.157 33.4818 87.7364 33.6973 87.2858 33.8237C86.8352 33.9502 86.3649 33.9777 85.8749 33.9063C85.3886 33.829 84.9015 33.6359 84.4135 33.327C83.9315 33.0218 83.5486 32.6641 83.2648 32.2539C82.9906 31.8415 82.8143 31.4047 82.7359 30.9433C82.6574 30.4819 82.6723 30.0096 82.7806 29.5264C82.8926 29.0373 83.0937 28.5636 83.384 28.105ZM91.6686 35.3246C91.4926 35.5029 91.3758 35.6857 91.318 35.873C91.2602 36.0603 91.2442 36.2449 91.27 36.4268C91.3056 36.6086 91.3757 36.7902 91.4802 36.9715C91.5896 37.1479 91.721 37.3119 91.8746 37.4634C91.9785 37.566 92.0973 37.6685 92.2308 37.771C92.3692 37.8684 92.5148 37.9437 92.6677 37.9968C92.8206 38.05 92.9732 38.0686 93.1256 38.0529C93.2829 38.0321 93.4275 37.9549 93.5595 37.8212C93.7012 37.6776 93.769 37.5148 93.7629 37.3328C93.7617 37.1557 93.7162 36.9642 93.6263 36.7581C93.5364 36.5521 93.4193 36.3339 93.2751 36.1036C93.1309 35.8734 92.9891 35.6357 92.8498 35.3906C92.7006 35.1456 92.5661 34.8956 92.4463 34.6405C92.3315 34.3806 92.2559 34.1203 92.2198 33.8598C92.1836 33.5993 92.2016 33.3384 92.2737 33.0772C92.3556 32.8159 92.5163 32.5639 92.7557 32.3213C93.0245 32.0489 93.3136 31.8699 93.623 31.7842C93.9422 31.6985 94.2619 31.6816 94.582 31.7336C94.9022 31.7856 95.2128 31.8967 95.5141 32.0669C95.8153 32.2372 96.0848 32.4395 96.3225 32.6741C96.5998 32.9478 96.8329 33.2415 97.022 33.5551C97.2208 33.8686 97.3509 34.1925 97.4121 34.5266C97.4733 34.8608 97.4534 35.193 97.3523 35.5233C97.261 35.8535 97.0638 36.1721 96.7608 36.4792L95.6317 35.3649C95.7782 35.1967 95.8731 35.0312 95.9163 34.8686C95.9644 34.7108 95.9708 34.5558 95.9354 34.4035C95.8999 34.2513 95.8325 34.1016 95.7331 33.9547C95.6387 33.8127 95.5197 33.6708 95.3761 33.529C95.282 33.4362 95.1782 33.3532 95.0645 33.2802C94.9509 33.2071 94.83 33.1563 94.7019 33.1276C94.5788 33.1038 94.4558 33.1046 94.3329 33.13C94.2101 33.1554 94.0925 33.2251 93.9801 33.339C93.8775 33.443 93.8142 33.5467 93.7903 33.6502C93.7664 33.7537 93.7845 33.8888 93.8446 34.0557C93.9097 34.2275 94.0169 34.4408 94.1662 34.6956C94.3204 34.9554 94.5218 35.291 94.7705 35.7027C94.85 35.8202 94.9496 35.9917 95.0691 36.2173C95.1985 36.4427 95.2937 36.6979 95.3546 36.9829C95.4155 37.2678 95.4126 37.5679 95.3458 37.8833C95.2888 38.1985 95.1137 38.5047 94.8205 38.8018C94.581 39.0444 94.3116 39.2233 94.0123 39.3385C93.7129 39.4536 93.3934 39.4951 93.0537 39.4629C92.7239 39.4306 92.3788 39.3197 92.0184 39.1302C91.6629 38.9456 91.3045 38.6749 90.943 38.3182C90.6508 38.0298 90.4027 37.7117 90.1987 37.3637C89.9948 37.0256 89.8621 36.6747 89.8006 36.311C89.7442 35.9523 89.7713 35.5929 89.8821 35.2331C89.9929 34.8732 90.212 34.5323 90.5395 34.2103L91.6686 35.3246ZM97.1119 41.2429C96.9056 41.385 96.7565 41.5426 96.6645 41.7158C96.5726 41.8889 96.5222 42.0672 96.5134 42.2507C96.5142 42.4359 96.549 42.6274 96.6176 42.8252C96.6919 43.019 96.7902 43.2047 96.9126 43.3823C96.9955 43.5027 97.0928 43.6257 97.2047 43.7513C97.3224 43.8731 97.4513 43.9744 97.5914 44.0552C97.7316 44.1361 97.878 44.1831 98.0307 44.1962C98.1891 44.2054 98.3456 44.1568 98.5003 44.0502C98.6665 43.9358 98.7637 43.7886 98.7918 43.6087C98.824 43.4345 98.8152 43.2378 98.7656 43.0185C98.7159 42.7993 98.6419 42.563 98.5435 42.3098C98.4451 42.0565 98.3505 41.7964 98.2596 41.5296C98.1591 41.2609 98.0739 40.9901 98.0042 40.7171C97.9402 40.4401 97.9149 40.1703 97.9283 39.9077C97.9417 39.645 98.0083 39.3922 98.1282 39.1491C98.2577 38.9078 98.4628 38.6905 98.7436 38.4972C99.0587 38.2801 99.3763 38.1586 99.6963 38.1325C100.026 38.1082 100.343 38.1517 100.648 38.2629C100.952 38.3741 101.237 38.5415 101.501 38.7653C101.765 38.989 101.991 39.2384 102.181 39.5134C102.402 39.8343 102.575 40.1665 102.702 40.5101C102.839 40.8554 102.906 41.1979 102.903 41.5376C102.9 41.8773 102.818 42.1998 102.657 42.5053C102.505 42.8125 102.252 43.0884 101.897 43.3331L100.997 42.0267C101.172 41.8889 101.297 41.7442 101.37 41.5926C101.447 41.4467 101.482 41.2956 101.476 41.1394C101.469 40.9832 101.431 40.8236 101.361 40.6606C101.295 40.5033 101.205 40.3416 101.091 40.1754C101.016 40.0666 100.929 39.9656 100.831 39.8725C100.733 39.7794 100.624 39.7068 100.504 39.6546C100.387 39.6081 100.266 39.5858 100.141 39.5877C100.015 39.5896 99.8869 39.6359 99.7551 39.7267C99.6348 39.8095 99.5531 39.8995 99.5102 39.9967C99.4673 40.0938 99.4597 40.23 99.4874 40.4052C99.5191 40.5861 99.5843 40.8158 99.6831 41.0941C99.7858 41.3782 99.9207 41.7457 100.088 42.1967C100.144 42.3271 100.209 42.5143 100.284 42.7582C100.369 43.004 100.415 43.2725 100.421 43.5638C100.427 43.8551 100.368 44.1494 100.243 44.4465C100.128 44.7455 99.8986 45.0133 99.5548 45.2501C99.274 45.4435 98.9758 45.5686 98.6602 45.6255C98.3446 45.6823 98.0229 45.6631 97.6953 45.5677C97.3774 45.474 97.0593 45.3003 96.7409 45.0465C96.4264 44.7985 96.1251 44.4653 95.8371 44.047C95.6042 43.7089 95.4203 43.3499 95.2853 42.9698C95.1484 42.5994 95.084 42.2298 95.0919 41.8611C95.1038 41.4981 95.1979 41.1503 95.3743 40.8176C95.5507 40.4849 95.83 40.1912 96.2121 39.9365L97.1119 41.2429Z" fill="#272727"/>
<path d="M36.4696 101.29L35.2489 100.213L37.6581 95.5747L37.6424 95.5609L33.3553 98.5421L32.1111 97.4442L35.5626 90.552L36.7911 91.6361L34.3193 96.2194L34.335 96.2332L38.6613 93.2865L39.8116 94.3016L37.3688 98.994L37.3844 99.0078L41.6974 95.9658L42.9025 97.0292L36.4696 101.29ZM43.4939 102.684L45.2019 103.584L45.6459 100.727L45.6274 100.717L43.4939 102.684ZM45.7637 98.7128L47.2502 99.4963L46.2408 107.387L44.736 106.594L45.0111 104.864L42.5461 103.564L41.2554 104.76L39.7967 103.991L45.7637 98.7128ZM51.7517 105.008L53.4816 105.486C53.8437 105.587 54.1376 105.581 54.3632 105.471C54.5887 105.36 54.7517 105.123 54.8519 104.761C54.9484 104.413 54.9275 104.136 54.7891 103.932C54.6526 103.721 54.4033 103.565 54.0413 103.465L52.3113 102.986L51.7517 105.008ZM51.0719 101.322L54.9442 102.394C55.266 102.483 55.5395 102.616 55.7646 102.794C55.9983 102.967 56.1806 103.169 56.3115 103.4C56.4491 103.633 56.5315 103.883 56.5585 104.151C56.5942 104.413 56.5739 104.682 56.4978 104.957C56.3809 105.379 56.1892 105.72 55.9228 105.978C55.663 106.238 55.3098 106.393 54.8629 106.443L54.8573 106.463C55.0369 106.57 55.1746 106.699 55.2705 106.848C55.3682 106.991 55.4359 107.15 55.4737 107.327C55.5133 107.496 55.5249 107.676 55.5083 107.867C55.4984 108.059 55.4751 108.247 55.4384 108.432C55.4135 108.548 55.3831 108.684 55.3471 108.84C55.3112 108.996 55.2776 109.156 55.2465 109.321C55.222 109.488 55.2062 109.649 55.1988 109.806C55.2001 109.958 55.2237 110.094 55.2696 110.215L53.6905 109.778C53.6664 109.526 53.688 109.24 53.7551 108.919C53.8222 108.598 53.8756 108.288 53.9151 107.989C53.9654 107.598 53.9276 107.292 53.8015 107.069C53.6754 106.847 53.4145 106.681 53.0189 106.571L51.4398 106.134L50.663 108.94L49.0839 108.503L51.0719 101.322ZM60.6073 106.844L62.4 106.936C62.7752 106.955 63.0609 106.886 63.257 106.729C63.4532 106.571 63.5608 106.305 63.58 105.93C63.5985 105.569 63.518 105.303 63.3386 105.134C63.1595 104.958 62.8823 104.86 62.5071 104.841L60.7144 104.749L60.6073 106.844ZM59.1431 103.394L63.1558 103.599C63.4893 103.616 63.7853 103.687 64.0436 103.811C64.3093 103.93 64.5311 104.087 64.7091 104.284C64.8941 104.482 65.0288 104.708 65.1133 104.963C65.2051 105.212 65.2437 105.479 65.2292 105.763C65.2068 106.201 65.0936 106.575 64.8897 106.885C64.6927 107.196 64.3814 107.423 63.956 107.569L63.9549 107.59C64.1536 107.656 64.3159 107.751 64.4419 107.876C64.5682 107.994 64.669 108.135 64.7442 108.299C64.8198 108.456 64.8701 108.629 64.8953 108.819C64.9274 109.008 64.9456 109.197 64.9499 109.386C64.9508 109.504 64.9507 109.644 64.9494 109.804C64.9482 109.964 64.9503 110.128 64.9557 110.295C64.968 110.463 64.9876 110.624 65.0145 110.779C65.0488 110.927 65.1014 111.055 65.1725 111.163L63.5362 111.08C63.4579 110.839 63.4167 110.554 63.4126 110.227C63.4084 109.899 63.3931 109.585 63.3667 109.284C63.331 108.892 63.2275 108.601 63.0561 108.411C62.8846 108.221 62.5939 108.116 62.184 108.095L60.5476 108.011L60.399 110.919L58.7626 110.835L59.1431 103.394ZM70.0622 107.877L71.9678 107.567L70.6014 105.019L70.5808 105.023L70.0622 107.877ZM69.4821 103.341L71.1405 103.071L75.0882 109.977L73.4092 110.251L72.5863 108.703L69.8361 109.151L69.5259 110.883L67.8984 111.148L69.4821 103.341ZM75.2926 102.238L76.8058 101.637L81.5406 105.136L81.56 105.129L79.7159 100.482L81.1418 99.9163L83.8907 106.842L82.3677 107.447L77.6465 103.953L77.6271 103.961L79.4674 108.598L78.0415 109.164L75.2926 102.238ZM85.3074 99.1882L83.4459 100.422L82.6848 99.2738L87.7736 95.9008L88.5347 97.049L86.6731 98.2829L90.0289 103.346L88.6632 104.251L85.3074 99.1882ZM93.6465 96.791L88.5162 95.4269L89.835 94.1485L93.1348 95.0486L92.3304 91.7297L93.6418 90.4585L94.852 95.6806L96.8423 97.7338L95.6658 98.8742L93.6465 96.791Z" fill="#272727"/>
<path d="M25.6416 81.8387C22.1648 73.6479 21.3703 64.5667 23.3719 55.8966" stroke="#272727" stroke-width="0.978396"/>
<path d="M104.937 53.7616C107.39 62.315 107.072 71.4254 104.028 79.7869" stroke="#272727" stroke-width="0.978396"/>
<defs>
<linearGradient id="paint0_linear_7_6" x1="35.7447" y1="-3.74468" x2="99.9149" y2="130.894" gradientUnits="userSpaceOnUse">
<stop stop-color="#FBBF24"/>
<stop offset="1" stop-color="#FDE047"/>
</linearGradient>
<linearGradient id="paint1_linear_7_6" x1="37.6471" y1="17.2101" x2="97.8824" y2="111.328" gradientUnits="userSpaceOnUse">
<stop offset="0.25" stop-color="#FDDA77"/>
<stop offset="0.5" stop-color="#FFEFC6"/>
<stop offset="1" stop-color="#FDDA77"/>
</linearGradient>
<linearGradient id="paint2_linear_7_6" x1="80.1306" y1="82.5607" x2="28.0001" y2="66.7435" gradientUnits="userSpaceOnUse">
<stop stop-color="#059669"/>
<stop offset="1" stop-color="#023022"/>
</linearGradient>
</defs>
</svg>
